<svg xmlns="http://www.w3.org/2000/svg" version="1.1" xmlns:xlink="http://www.w3.org/1999/xlink" xmlns:svgjs="http://svgjs.dev/svgjs" width="1000" height="623" viewBox="0 0 1000 623"><g transform="matrix(1,0,0,1,-0.6060606060606233,0.2522267206477409)"><svg viewBox="0 0 396 247" data-background-color="#5e1914" preserveAspectRatio="xMidYMid meet" height="623" width="1000" xmlns="http://www.w3.org/2000/svg" xmlns:xlink="http://www.w3.org/1999/xlink"><defs></defs><g id="tight-bounds" transform="matrix(1,0,0,1,0.2400000000000091,-0.09999999999999432)"><svg viewBox="0 0 395.52 247.2" height="247.2" width="395.52"><g><svg></svg></g><g><svg viewBox="0 0 395.52 247.2" height="247.2" width="395.52"><g transform="matrix(1,0,0,1,75.54432000000001,86.40149484519493)"><svg viewBox="0 0 244.43135999999996 74.39701030961012" height="74.39701030961012" width="244.43135999999996"><g><svg viewBox="0 0 244.43135999999996 74.39701030961012" height="74.39701030961012" width="244.43135999999996"><g><svg viewBox="0 0 244.43135999999996 74.39701030961012" height="74.39701030961012" width="244.43135999999996"><g><svg viewBox="0 0 244.43135999999996 74.39701030961012" height="74.39701030961012" width="244.43135999999996"><g><svg viewBox="0 0 244.43135999999996 74.39701030961012" height="74.39701030961012" width="244.43135999999996"><g><svg viewBox="0 0 244.43135999999996 40.126192405063286" height="40.126192405063286" width="244.43135999999996"><g transform="matrix(1,0,0,1,0,0)"><svg width="244.43135999999996" viewBox="1.2699999809265137 -33.939998626708984 271.53363037109375 44.57999801635742" height="40.126192405063286" data-palette-color="#ed1703"><path d="M8.54-32.03L8.54-32.03Q9.52-32.03 15.38-32.32L15.38-32.32Q15.53-31.88 15.53-31.45L15.53-31.45Q15.53-30.52 15.33-30.52L15.33-30.52Q14.89-30.52 13.57-30.1 12.26-29.69 12.16-29.35L12.16-29.35Q11.82-28.03 11.82-25.44L11.82-25.44 11.82-6.93Q11.82-4.54 12.21-3.42L12.21-3.42Q12.45-2.64 15.53-2.64L15.53-2.64 16.8-2.64Q19.82-2.64 22.27-3.91L22.27-3.91Q23.1-4.35 24.15-5.57 25.2-6.79 25.78-8.3L25.78-8.3Q25.88-8.59 26.46-8.59L26.46-8.59Q27.64-8.59 27.93-8.3L27.93-8.3Q25.54-1.56 25.29 0.1L25.29 0.1Q22.51 0.1 16.6 0 10.69-0.1 8.59-0.1L8.59-0.1 1.46 0.2Q1.27 0 1.27-0.63L1.27-0.63Q1.27-1.61 1.46-1.61L1.46-1.61Q2.05-1.61 3.3-1.95 4.54-2.29 4.69-2.69L4.69-2.69Q4.98-3.81 4.98-6.98L4.98-6.98 4.98-25.63Q4.98-28.61 4.59-29.3L4.59-29.3Q4.35-29.69 3.22-30.1 2.1-30.52 1.56-30.52L1.56-30.52Q1.37-30.52 1.37-31.35L1.37-31.35Q1.37-32.23 1.46-32.32L1.46-32.32Q8.2-32.03 8.54-32.03ZM34.37-27.51Q33.3-28.56 33.3-30.08 33.3-31.59 34.37-32.64 35.45-33.69 36.94-33.69 38.43-33.69 39.48-32.64 40.52-31.59 40.52-30.08 40.52-28.56 39.48-27.51 38.43-26.46 36.94-26.46 35.45-26.46 34.37-27.51ZM40.52-15.92L40.52-7.28Q40.52-4.15 40.87-2.83L40.87-2.83Q40.96-2.49 42.26-2.05 43.55-1.61 43.94-1.61L43.94-1.61Q44.14-1.61 44.14-0.81 44.14 0 44.04 0.2L44.04 0.2Q43.55 0.15 41.01-0.02 38.47-0.2 37.35-0.2L37.35-0.2Q36.18-0.2 33.71-0.02 31.25 0.15 30.66 0.2L30.66 0.2Q30.52 0 30.52-0.81 30.52-1.61 30.66-1.61L30.66-1.61Q31.25-1.61 32.49-2.05 33.74-2.49 33.84-2.83L33.84-2.83Q34.18-4.3 34.18-6.54L34.18-6.54 34.18-13.23Q34.18-15.97 33.3-16.89L33.3-16.89Q32.96-17.29 32.3-17.53 31.64-17.77 31.13-17.87 30.61-17.97 30.61-18.02L30.61-18.02Q30.61-19.73 30.86-19.73L30.86-19.73Q31.83-19.73 35.13-20.39 38.43-21.04 39.79-21.48L39.79-21.48Q39.84-21.48 40.09-21.56 40.33-21.63 40.33-21.63L40.33-21.63Q40.62-21.63 40.84-21.31 41.06-21 41.06-20.8L41.06-20.8Q41.01-20.41 40.87-19.34 40.72-18.26 40.62-17.46 40.52-16.65 40.52-15.92L40.52-15.92ZM64.74-18.8L64.74-18.8Q63.72-19.82 61.52-19.82L61.52-19.82Q61.37-19.87 61.37-20.61 61.37-21.34 61.47-21.63L61.47-21.63Q62.2-21.58 64.13-21.41 66.06-21.24 67.13-21.24L67.13-21.24Q68.31-21.24 70.14-21.41 71.97-21.58 72.75-21.63L72.75-21.63Q72.94-21.44 72.94-20.8L72.94-20.8Q72.94-19.82 72.75-19.82L72.75-19.82Q72.02-19.82 70.7-19.31 69.38-18.8 68.89-17.87L68.89-17.87 60.3-0.88Q59.57 0.54 58.83 0.54L58.83 0.54Q58.25 0.54 58.05 0.15L58.05 0.15 49.95-18.12Q49.56-19.04 48.41-19.43 47.26-19.82 46.53-19.82L46.53-19.82Q46.33-19.82 46.33-20.8L46.33-20.8Q46.33-21.39 46.53-21.63L46.53-21.63Q47.07-21.58 49.58-21.41 52.09-21.24 53.22-21.24L53.22-21.24Q54.44-21.24 57.1-21.44 59.76-21.63 60.2-21.63L60.2-21.63Q60.4-21.44 60.4-20.63 60.4-19.82 60.2-19.82L60.2-19.82Q59.47-19.82 58.17-19.43 56.88-19.04 56.88-18.51L56.88-18.51 56.98-17.77 60.83-8.59 64.69-16.7Q65.42-18.12 64.74-18.8ZM79.44-27.51Q78.36-28.56 78.36-30.08 78.36-31.59 79.44-32.64 80.51-33.69 82-33.69 83.49-33.69 84.54-32.64 85.59-31.59 85.59-30.08 85.59-28.56 84.54-27.51 83.49-26.46 82-26.46 80.51-26.46 79.44-27.51ZM85.59-15.92L85.59-7.28Q85.59-4.15 85.93-2.83L85.93-2.83Q86.03-2.49 87.32-2.05 88.62-1.61 89.01-1.61L89.01-1.61Q89.2-1.61 89.2-0.81 89.2 0 89.1 0.2L89.1 0.2Q88.62 0.15 86.08-0.02 83.54-0.2 82.41-0.2L82.41-0.2Q81.24-0.2 78.78-0.02 76.31 0.15 75.72 0.2L75.72 0.2Q75.58 0 75.58-0.81 75.58-1.61 75.72-1.61L75.72-1.61Q76.31-1.61 77.56-2.05 78.8-2.49 78.9-2.83L78.9-2.83Q79.24-4.3 79.24-6.54L79.24-6.54 79.24-13.23Q79.24-15.97 78.36-16.89L78.36-16.89Q78.02-17.29 77.36-17.53 76.7-17.77 76.19-17.87 75.68-17.97 75.68-18.02L75.68-18.02Q75.68-19.73 75.92-19.73L75.92-19.73Q76.9-19.73 80.19-20.39 83.49-21.04 84.86-21.48L84.86-21.48Q84.9-21.48 85.15-21.56 85.39-21.63 85.39-21.63L85.39-21.63Q85.69-21.63 85.91-21.31 86.13-21 86.13-20.8L86.13-20.8Q86.08-20.41 85.93-19.34 85.78-18.26 85.69-17.46 85.59-16.65 85.59-15.92L85.59-15.92ZM109.07-21.78L109.07-21.78Q111.9-21.78 113.69-19.38 115.47-16.99 115.47-12.11L115.47-12.11 115.47-7.28Q115.47-4.15 115.81-2.83L115.81-2.83Q115.91-2.49 117.18-2.05 118.45-1.61 118.89-1.61L118.89-1.61Q119.03-1.61 119.06-0.81 119.08 0 118.98 0.2L118.98 0.2Q118.45 0.15 115.93-0.02 113.42-0.2 112.29-0.2L112.29-0.2Q111.12-0.2 108.75-0.02 106.39 0.15 105.8 0.2L105.8 0.2Q105.61 0 105.61-0.81 105.61-1.61 105.8-1.61L105.8-1.61Q106.34-1.61 107.51-2.05 108.68-2.49 108.78-2.83L108.78-2.83Q109.12-4.3 109.12-6.54L109.12-6.54 109.12-10.94Q109.12-14.55 108.12-16.09 107.12-17.63 104.92-17.63L104.92-17.63Q103.41-17.63 102.48-17.07 101.55-16.5 101.55-15.48L101.55-15.48 101.55-7.28Q101.55-4.15 101.89-2.83L101.89-2.83Q101.99-2.49 103.19-2.05 104.38-1.61 104.78-1.61L104.78-1.61Q104.92-1.61 104.95-0.81 104.97 0 104.87 0.2L104.87 0.2Q104.29 0.15 101.89-0.02 99.5-0.2 98.38-0.2L98.38-0.2Q97.21-0.2 94.72-0.02 92.23 0.15 91.69 0.2L91.69 0.2Q91.49 0 91.49-0.81 91.49-1.61 91.69-1.61L91.69-1.61Q92.23-1.61 93.5-2.05 94.77-2.49 94.86-2.83L94.86-2.83Q95.2-4.3 95.2-6.54L95.2-6.54 95.2-13.23Q95.2-15.97 94.33-16.89L94.33-16.89Q93.98-17.29 93.3-17.53 92.62-17.77 92.13-17.87 91.64-17.97 91.64-18.02L91.64-18.02Q91.64-19.73 91.88-19.73L91.88-19.73Q92.47-19.73 93.84-20 95.2-20.26 97.4-20.75 99.6-21.24 100.82-21.48L100.82-21.48Q100.92-21.48 101.04-21.53 101.16-21.58 101.26-21.58L101.26-21.58 101.36-21.63Q101.6-21.63 101.85-21.31 102.09-21 102.09-20.8L102.09-20.8Q101.89-19.43 101.89-19.29L101.89-19.29Q101.89-19.04 101.94-18.99L101.94-18.99Q102.04-18.99 102.28-19.24L102.28-19.24Q105.02-21.78 109.07-21.78ZM137 3.96L137 3.96Q137 1.76 128.8 1.76L128.8 1.76Q128.65 1.81 128.6 1.81L128.6 1.81Q126.99 2.34 126.65 2.88L126.65 2.88Q126.31 3.32 126.31 4.2L126.31 4.2Q126.31 5.66 127.84 6.67 129.38 7.67 131.29 7.67L131.29 7.67Q133.83 7.67 135.41 6.74 137 5.81 137 3.96ZM128.6-14.36L128.6-14.36Q128.6-13.09 128.7-12.18 128.8-11.28 129.04-10.33 129.28-9.38 129.87-8.89 130.46-8.4 131.38-8.4 132.31-8.4 132.87-8.76 133.43-9.13 133.65-9.91 133.87-10.69 133.95-11.35 134.02-12.01 134.02-13.09L134.02-13.09Q134.02-16.21 133.43-17.77 132.85-19.34 131.09-19.34L131.09-19.34Q130.21-19.34 129.65-18.9 129.09-18.46 128.89-17.58 128.7-16.7 128.65-16.14 128.6-15.58 128.6-14.6L128.6-14.6Q128.6-14.45 128.6-14.36ZM131.43-21.92L131.43-21.92Q133.19-21.92 135.56-21.29 137.93-20.65 139.34-20.65L139.34-20.65 142.03-20.65Q142.18-20.61 142.57-19.78 142.96-18.95 142.96-18.6L142.96-18.6Q142.96-17.92 142.66-17.92L142.66-17.92 139.78-17.92Q139.59-17.87 139.59-17.77L139.59-17.77Q139.59-17.72 139.95-16.43 140.32-15.14 140.32-14.01L140.32-14.01Q140.32-10.94 137.83-8.4 135.34-5.86 131.58-5.86L131.58-5.86Q129.63-5.86 128.26-6.1L128.26-6.1Q127.67-5.91 127.38-5.44 127.09-4.98 127.09-4.64 127.09-4.3 127.58-4.08 128.06-3.86 129.06-3.74 130.07-3.61 130.82-3.54 131.58-3.47 133-3.42 134.41-3.37 134.8-3.37L134.8-3.37Q142.61-2.98 142.66 1.76L142.66 1.76Q142.71 5.32 138.81 7.98 134.9 10.64 130.46 10.64L130.46 10.64Q126.75 10.64 124.21 9.18 121.67 7.71 121.67 5.27L121.67 5.27Q121.67 4.2 122.81 2.98 123.96 1.76 125.67 1.22L125.67 1.22Q124.4 0.68 123.38-0.51 122.35-1.71 122.35-3.13L122.35-3.13Q122.35-3.76 122.69-4.35 123.03-4.93 123.79-5.49 124.55-6.05 124.87-6.25 125.18-6.45 126.06-6.93L126.06-6.93Q124.65-7.71 123.47-9.69 122.3-11.67 122.3-13.77L122.3-13.77Q122.3-17.77 124.96-19.85 127.62-21.92 131.43-21.92ZM162.97-32.03L162.97-32.03Q163.95-32.03 169.81-32.32L169.81-32.32Q169.95-31.88 169.95-31.45L169.95-31.45Q169.95-30.52 169.76-30.52L169.76-30.52Q169.32-30.52 168-30.1 166.68-29.69 166.58-29.35L166.58-29.35Q166.24-28.03 166.24-25.44L166.24-25.44 166.24-6.93Q166.24-4.54 166.63-3.42L166.63-3.42Q166.88-2.64 169.95-2.64L169.95-2.64 171.22-2.64Q174.25-2.64 176.69-3.91L176.69-3.91Q177.52-4.35 178.57-5.57 179.62-6.79 180.21-8.3L180.21-8.3Q180.3-8.59 180.89-8.59L180.89-8.59Q182.06-8.59 182.36-8.3L182.36-8.3Q179.96-1.56 179.72 0.1L179.72 0.1Q176.94 0.1 171.03 0 165.12-0.1 163.02-0.1L163.02-0.1 155.89 0.2Q155.7 0 155.7-0.63L155.7-0.63Q155.7-1.61 155.89-1.61L155.89-1.61Q156.48-1.61 157.72-1.95 158.97-2.29 159.11-2.69L159.11-2.69Q159.41-3.81 159.41-6.98L159.41-6.98 159.41-25.63Q159.41-28.61 159.02-29.3L159.02-29.3Q158.77-29.69 157.65-30.1 156.53-30.52 155.99-30.52L155.99-30.52Q155.79-30.52 155.79-31.35L155.79-31.35Q155.79-32.23 155.89-32.32L155.89-32.32Q162.63-32.03 162.97-32.03ZM195.24-19.14L195.24-19.14Q193.34-19.14 192.46-17.31 191.58-15.48 191.58-13.72L191.58-13.72Q191.58-13.43 191.92-13.43L191.92-13.43 198.12-13.43Q198.81-13.43 198.81-14.36L198.81-14.36Q198.81-16.21 197.81-17.68 196.81-19.14 195.24-19.14ZM195.49-21.83L195.49-21.83Q199.88-21.83 202.54-18.77 205.2-15.72 205.2-12.55L205.2-12.55Q205.2-11.43 204.74-11.08 204.28-10.74 202.91-10.74L202.91-10.74 191.87-10.74Q191.58-10.74 191.58-10.4L191.58-10.4Q191.58-7.76 193.07-5.66 194.56-3.56 197.34-3.56L197.34-3.56Q198.95-3.56 200.42-4.03 201.88-4.49 202.47-4.86 203.06-5.22 204.03-5.96L204.03-5.96Q204.47-5.76 204.47-5.03L204.47-5.03Q204.47-4.44 204.28-4.05L204.28-4.05Q203.79-2.88 201.35-1.27 198.91 0.34 195.88 0.34L195.88 0.34Q191.39 0.34 188.14-2.93 184.89-6.2 184.89-10.79L184.89-10.79Q184.89-15.48 187.82-18.65 190.75-21.83 195.49-21.83ZM225.81-18.8L225.81-18.8Q224.78-19.82 222.58-19.82L222.58-19.82Q222.44-19.87 222.44-20.61 222.44-21.34 222.54-21.63L222.54-21.63Q223.27-21.58 225.2-21.41 227.13-21.24 228.2-21.24L228.2-21.24Q229.37-21.24 231.2-21.41 233.03-21.58 233.82-21.63L233.82-21.63Q234.01-21.44 234.01-20.8L234.01-20.8Q234.01-19.82 233.82-19.82L233.82-19.82Q233.08-19.82 231.76-19.31 230.45-18.8 229.96-17.87L229.96-17.87 221.36-0.88Q220.63 0.54 219.9 0.54L219.9 0.54Q219.31 0.54 219.12 0.15L219.12 0.15 211.01-18.12Q210.62-19.04 209.47-19.43 208.33-19.82 207.59-19.82L207.59-19.82Q207.4-19.82 207.4-20.8L207.4-20.8Q207.4-21.39 207.59-21.63L207.59-21.63Q208.13-21.58 210.65-21.41 213.16-21.24 214.28-21.24L214.28-21.24Q215.5-21.24 218.17-21.44 220.83-21.63 221.27-21.63L221.27-21.63Q221.46-21.44 221.46-20.63 221.46-19.82 221.27-19.82L221.27-19.82Q220.53-19.82 219.24-19.43 217.95-19.04 217.95-18.51L217.95-18.51 218.04-17.77 221.9-8.59 225.76-16.7Q226.49-18.12 225.81-18.8ZM246.95-19.14L246.95-19.14Q245.04-19.14 244.16-17.31 243.29-15.48 243.29-13.72L243.29-13.72Q243.29-13.43 243.63-13.43L243.63-13.43 249.83-13.43Q250.51-13.43 250.51-14.36L250.51-14.36Q250.51-16.21 249.51-17.68 248.51-19.14 246.95-19.14ZM247.19-21.83L247.19-21.83Q251.59-21.83 254.25-18.77 256.91-15.72 256.91-12.55L256.91-12.55Q256.91-11.43 256.44-11.08 255.98-10.74 254.61-10.74L254.61-10.74 243.58-10.74Q243.29-10.74 243.29-10.4L243.29-10.4Q243.29-7.76 244.77-5.66 246.26-3.56 249.05-3.56L249.05-3.56Q250.66-3.56 252.12-4.03 253.59-4.49 254.17-4.86 254.76-5.22 255.74-5.96L255.74-5.96Q256.18-5.76 256.18-5.03L256.18-5.03Q256.18-4.44 255.98-4.05L255.98-4.05Q255.49-2.88 253.05-1.27 250.61 0.34 247.58 0.34L247.58 0.34Q243.09 0.34 239.84-2.93 236.6-6.2 236.6-10.79L236.6-10.79Q236.6-15.48 239.53-18.65 242.46-21.83 247.19-21.83ZM262.86-6.54L262.86-25.93Q262.86-28.22 262.62-29.44L262.62-29.44Q262.37-30.22 260.08-30.22L260.08-30.22 259.64-30.22Q259.35-30.22 259.35-31.2L259.35-31.2Q259.35-32.03 259.64-32.03L259.64-32.03Q261.15-32.18 262.69-32.42 264.23-32.67 265.3-32.91 266.38-33.15 267.23-33.4 268.09-33.64 268.58-33.79L268.58-33.79 269.06-33.94 269.16-33.94Q269.36-33.94 269.55-33.64 269.75-33.35 269.8-33.11L269.8-33.11Q269.26-30.91 269.26-28.17L269.26-28.17 269.21-7.28Q269.21-4.15 269.55-2.83L269.55-2.83Q269.65-2.49 270.92-2.05 272.19-1.61 272.63-1.61L272.63-1.61Q272.78-1.61 272.8-0.81 272.82 0 272.73 0.2L272.73 0.2Q272.19 0.15 269.67-0.02 267.16-0.2 266.04-0.2L266.04-0.2Q264.87-0.2 262.37-0.02 259.88 0.15 259.35 0.2L259.35 0.2Q259.15 0 259.15-0.81 259.15-1.61 259.35-1.61L259.35-1.61Q259.88-1.61 261.15-2.05 262.42-2.49 262.52-2.83L262.52-2.83Q262.86-4.3 262.86-6.54L262.86-6.54Z" opacity="1" transform="matrix(1,0,0,1,0,0)" fill="#ed1703" class="undefined-text-0" data-fill-palette-color="primary" id="text-0"></path></svg></g></svg></g><g transform="matrix(1,0,0,1,0,49.59902340328101)"><svg viewBox="0 0 244.43135999999996 24.797986906329108" height="24.797986906329108" width="244.43135999999996"><g transform="matrix(1,0,0,1,0,0)"><svg width="244.43135999999996" viewBox="1.75 -35.75 458.3500061035156 46.5" height="24.797986906329108" data-palette-color="#ff908b"><path d="M14.75 0.75Q11.2 0.75 8.1-0.85L8.1-0.85Q6.7-1.55 5.75-2.5L5.75-2.5Q5.05-1.35 4-0.45L4-0.45Q3.1 0.2 3 0.25L3 0.25 1.75 0.25 1.75-9.25 3.75-9.25Q4.5-6.8 5.85-4.85L5.85-4.85Q8.9-0.5 13.75-0.5L13.75-0.5Q16.6-0.5 18.3-2.2 20-3.9 20-6.75L20-6.75Q20-8.4 19.03-9.7 18.05-11 16.6-12 15.15-13 12.55-14.5L12.55-14.5Q9.25-16.35 7.2-17.85 5.15-19.35 3.7-21.63 2.25-23.9 2.25-27L2.25-27Q2.25-29.45 3.63-31.43 5-33.4 7.75-34.58 10.5-35.75 14.5-35.75L14.5-35.75Q17.4-35.75 20.3-34.1L20.3-34.1Q21.4-33.5 22.5-32.5L22.5-32.5Q23.35-33.8 24.25-34.55L24.25-34.55Q25.15-35.2 25.25-35.25L25.25-35.25 26.5-35.25 26.5-25.75 24.5-25.75Q23.85-28.15 22.55-30.1L22.55-30.1Q21.35-32 19.58-33.25 17.8-34.5 15.5-34.5L15.5-34.5Q13.55-34.5 12.15-32.95 10.75-31.4 10.75-29L10.75-29Q10.75-27.15 11.83-25.68 12.9-24.2 14.48-23.1 16.05-22 18.75-20.45L18.75-20.45Q21.9-18.65 23.85-17.25 25.8-15.85 27.15-13.78 28.5-11.7 28.5-9L28.5-9Q28.5-6.3 26.95-4.08 25.4-1.85 22.3-0.55 19.2 0.75 14.75 0.75L14.75 0.75ZM45.95 0.75Q41.5 0.75 39.1-1.15 36.7-3.05 36.7-6L36.7-6Q36.7-7.95 37.55-9.85L37.55-9.85Q37.9-10.75 38.45-11.5L38.45-11.5Q40.5-12 42.9-12.4L42.9-12.4Q48.3-13.3 52.45-13.5L52.45-13.5 52.45-15Q52.45-20.55 51.1-22.65 49.75-24.75 46.95-24.75L46.95-24.75Q45.9-24.75 45.15-24.5L45.15-24.5 44.45-24.25 44.45-16.75 43.8-16.6Q43-16.5 42.45-16.5L42.45-16.5Q40.75-16.5 39.73-17.53 38.7-18.55 38.7-20.25L38.7-20.25Q38.7-22.55 41.03-24.15 43.35-25.75 47.95-25.75L47.95-25.75Q51.85-25.75 54.68-24.38 57.5-23 58.98-20.58 60.45-18.15 60.45-15L60.45-15 60.45-1.5 63.45-0.75 63.45 0 58.95 0Q55.95 0 54.3-1.85L54.3-1.85Q53.6-2.6 53.2-3.75L53.2-3.75Q52.5-2.5 51.55-1.5L51.55-1.5Q49.3 0.75 45.95 0.75L45.95 0.75ZM47.95-1Q49.8-1 51.3-3L51.3-3Q51.85-3.75 52.45-5L52.45-5 52.45-12.25Q50.15-12.25 48.05-12L48.05-12Q46.5-11.8 45.95-11.75L45.95-11.75Q45.7-11.2 45.45-10.25L45.45-10.25Q44.95-8.35 44.95-6.5L44.95-6.5Q44.95-3.7 45.8-2.35 46.65-1 47.95-1L47.95-1ZM81.91 0.5L69.41-23.5 66.91-24.25 66.91-25 73.16-25Q75.76-25 77.28-23.93 78.81-22.85 79.91-20.75L79.91-20.75 85.86-9.2 91.41-22.75 87.66-24.25 87.66-25 96.91-25 96.91-24.25 92.91-22.75 83.41 0.5 81.91 0.5ZM114.86 0.75Q108.46 0.75 104.91-2.78 101.36-6.3 101.36-12.5L101.36-12.5Q101.36-16.55 102.91-19.55 104.46-22.55 107.23-24.15 110.01-25.75 113.61-25.75L113.61-25.75Q117.21-25.75 119.93-24.4 122.66-23.05 124.13-20.78 125.61-18.5 125.61-15.75L125.61-15.75Q125.61-14.5 125.36-13.6L125.36-13.6 125.11-12.75Q122.96-12.3 120.46-12L120.46-12Q115.21-11.25 109.86-11.25L109.86-11.25Q109.86-5.45 111.46-2.98 113.06-0.5 115.86-0.5L115.86-0.5Q117.81-0.5 119.48-1.43 121.16-2.35 122.13-3.88 123.11-5.4 123.11-7L123.11-7 124.36-7Q124.36-5 123.16-3.2 121.96-1.4 119.81-0.33 117.66 0.75 114.86 0.75L114.86 0.75ZM109.86-12.5Q113.06-12.5 115.06-12.75L115.06-12.75Q115.91-12.8 116.86-13L116.86-13Q116.91-13.25 117.11-14.1L117.11-14.1Q117.36-15.35 117.36-16.75L117.36-16.75Q117.36-20.9 116.26-22.83 115.16-24.75 113.61-24.75L113.61-24.75Q109.86-24.75 109.86-12.5L109.86-12.5ZM165.27 0.75Q161.97 0.75 159.54-0.45 157.12-1.65 155.82-3.75 154.52-5.85 154.52-8.5L154.52-8.5 154.52-23.75 151.02-23.75 151.02-25 154.52-25 154.52-27.5Q154.52-32 159.02-32L159.02-32 162.52-32 162.52-25 169.52-25 169.52-23.75 162.52-23.75 162.52-8.5Q162.52-3.9 163.47-2.2 164.42-0.5 166.27-0.5L166.27-0.5Q168.07-0.5 169.42-2.25 170.77-4 170.77-7L170.77-7 172.02-7Q172.02-3.3 170.17-1.28 168.32 0.75 165.27 0.75L165.27 0.75ZM179.22 0L179.22-0.75 182.22-1.5 182.22-33.5 179.22-34.25 179.22-35 185.72-35Q190.22-35 190.22-30.5L190.22-30.5 190.22-22.5Q190.97-23.5 191.77-24.1L191.77-24.1Q193.92-25.75 196.72-25.75L196.72-25.75Q199.52-25.75 201.74-24.58 203.97-23.4 205.22-21.5 206.47-19.6 206.47-17.5L206.47-17.5 206.47-1.5 209.47-0.75 209.47 0 202.97 0Q198.47 0 198.47-4.5L198.47-4.5 198.47-17.5Q198.47-20.65 197.34-22.33 196.22-24 194.72-24L194.72-24Q192.82-24 191.32-22L191.32-22Q190.67-21.15 190.22-20L190.22-20 190.22-1.5 193.22-0.75 193.22 0 179.22 0ZM230.42 0.75Q224.02 0.75 220.47-2.78 216.92-6.3 216.92-12.5L216.92-12.5Q216.92-16.55 218.47-19.55 220.02-22.55 222.8-24.15 225.57-25.75 229.17-25.75L229.17-25.75Q232.77-25.75 235.5-24.4 238.22-23.05 239.7-20.78 241.17-18.5 241.17-15.75L241.17-15.75Q241.17-14.5 240.92-13.6L240.92-13.6 240.67-12.75Q238.52-12.3 236.02-12L236.02-12Q230.77-11.25 225.42-11.25L225.42-11.25Q225.42-5.45 227.02-2.98 228.62-0.5 231.42-0.5L231.42-0.5Q233.37-0.5 235.05-1.43 236.72-2.35 237.7-3.88 238.67-5.4 238.67-7L238.67-7 239.92-7Q239.92-5 238.72-3.2 237.52-1.4 235.37-0.33 233.22 0.75 230.42 0.75L230.42 0.75ZM225.42-12.5Q228.62-12.5 230.62-12.75L230.62-12.75Q231.47-12.8 232.42-13L232.42-13Q232.47-13.25 232.67-14.1L232.67-14.1Q232.92-15.35 232.92-16.75L232.92-16.75Q232.92-20.9 231.82-22.83 230.72-24.75 229.17-24.75L229.17-24.75Q225.42-24.75 225.42-12.5L225.42-12.5ZM268.33 0L268.33-0.75 271.33-1.5 271.33-33.5 268.33-34.25 268.33-35 282.33-35Q290.63-35 294.23-32.27 297.83-29.55 297.83-24.25L297.83-24.25Q297.83-18.95 294.23-16.23 290.63-13.5 282.33-13.5L282.33-13.5 279.58-13.5 279.58-1.5 282.58-0.75 282.58 0 268.33 0ZM279.58-14.75L282.33-14.75Q285.48-14.75 287.4-17.15 289.33-19.55 289.33-24.25L289.33-24.25Q289.33-28.9 287.4-31.33 285.48-33.75 282.33-33.75L282.33-33.75 279.58-33.75 279.58-14.75ZM306.03 0L306.03-0.75 309.03-1.5 309.03-23.5 306.03-24.25 306.03-25 310.53-25Q313.48-25 315.18-23.1L315.18-23.1Q315.83-22.35 316.28-21.25L316.28-21.25Q317.03-22.35 318.13-23.25L318.13-23.25Q320.63-25.25 323.73-25.25L323.73-25.25Q326.38-25.25 327.71-24.03 329.03-22.8 329.03-20.5L329.03-20.5Q329.03-18.8 328.01-17.78 326.98-16.75 325.28-16.75L325.28-16.75Q324.58-16.75 323.88-16.85L323.88-16.85 323.28-17 323.28-24Q320.73-24 318.63-22L318.63-22Q317.63-21 317.03-20L317.03-20 317.03-1.5 320.03-0.75 320.03 0 306.03 0ZM348.99 0.75Q342.79 0.75 339.26-2.78 335.74-6.3 335.74-12.5L335.74-12.5Q335.74-18.7 339.26-22.23 342.79-25.75 348.99-25.75L348.99-25.75Q355.19-25.75 358.71-22.23 362.24-18.7 362.24-12.5L362.24-12.5Q362.24-6.3 358.71-2.78 355.19 0.75 348.99 0.75L348.99 0.75ZM348.99-0.25Q350.99-0.25 352.36-3.05 353.74-5.85 353.74-12.5L353.74-12.5Q353.74-19.15 352.36-21.95 350.99-24.75 348.99-24.75L348.99-24.75Q346.99-24.75 345.61-21.95 344.24-19.15 344.24-12.5L344.24-12.5Q344.24-5.85 345.61-3.05 346.99-0.25 348.99-0.25L348.99-0.25ZM383.69 0.75Q380.39 0.75 377.96-0.45 375.54-1.65 374.24-3.75 372.94-5.85 372.94-8.5L372.94-8.5 372.94-23.75 369.44-23.75 369.44-25 372.94-25 372.94-27.5Q372.94-32 377.44-32L377.44-32 380.94-32 380.94-25 387.94-25 387.94-23.75 380.94-23.75 380.94-8.5Q380.94-3.9 381.89-2.2 382.84-0.5 384.69-0.5L384.69-0.5Q386.49-0.5 387.84-2.25 389.19-4 389.19-7L389.19-7 390.44-7Q390.44-3.3 388.59-1.28 386.74 0.75 383.69 0.75L383.69 0.75ZM406.89 0.75Q402.44 0.75 400.04-1.15 397.64-3.05 397.64-6L397.64-6Q397.64-7.95 398.49-9.85L398.49-9.85Q398.84-10.75 399.39-11.5L399.39-11.5Q401.44-12 403.84-12.4L403.84-12.4Q409.24-13.3 413.39-13.5L413.39-13.5 413.39-15Q413.39-20.55 412.04-22.65 410.69-24.75 407.89-24.75L407.89-24.75Q406.84-24.75 406.09-24.5L406.09-24.5 405.39-24.25 405.39-16.75 404.74-16.6Q403.94-16.5 403.39-16.5L403.39-16.5Q401.69-16.5 400.67-17.53 399.64-18.55 399.64-20.25L399.64-20.25Q399.64-22.55 401.97-24.15 404.29-25.75 408.89-25.75L408.89-25.75Q412.79-25.75 415.62-24.38 418.44-23 419.92-20.58 421.39-18.15 421.39-15L421.39-15 421.39-1.5 424.39-0.75 424.39 0 419.89 0Q416.89 0 415.24-1.85L415.24-1.85Q414.54-2.6 414.14-3.75L414.14-3.75Q413.44-2.5 412.49-1.5L412.49-1.5Q410.24 0.75 406.89 0.75L406.89 0.75ZM408.89-1Q410.74-1 412.24-3L412.24-3Q412.79-3.75 413.39-5L413.39-5 413.39-12.25Q411.09-12.25 408.99-12L408.99-12Q407.44-11.8 406.89-11.75L406.89-11.75Q406.64-11.2 406.39-10.25L406.39-10.25Q405.89-8.35 405.89-6.5L405.89-6.5Q405.89-3.7 406.74-2.35 407.59-1 408.89-1L408.89-1ZM443.6 10.75Q439.15 10.75 436.35 9.95 433.55 9.15 432.32 7.9 431.1 6.65 431.1 5.25L431.1 5.25Q431.1 3.55 432.12 2.53 433.15 1.5 434.85 1.5L434.85 1.5Q435.25 1.5 436.3 1.65L436.3 1.65 436.85 1.75 436.85 8.75Q437.45 8.95 438.75 9.25L438.75 9.25Q441.05 9.75 443.1 9.75L443.1 9.75Q449.2 9.75 452.02 8.03 454.85 6.3 454.85 3.75L454.85 3.75Q454.85 0.5 448.85 0.5L448.85 0.5 439.35 0.5Q435.6 0.5 433.6-1.05 431.6-2.6 431.6-5L431.6-5Q431.6-7.4 433.95-9.25L433.95-9.25Q434.9-9.95 436.35-10.5L436.35-10.5Q434.5-11.65 433.67-13.23 432.85-14.8 432.85-17L432.85-17Q432.85-20.7 435.65-22.98 438.45-25.25 443.85-25.25L443.85-25.25Q446.2-25.25 448.17-24.78 450.15-24.3 451.35-23.5L451.35-23.5Q451.75-24.35 452.4-25L452.4-25Q453.9-26.5 456.1-26.5L456.1-26.5Q457.8-26.5 458.95-25.33 460.1-24.15 460.1-22.25L460.1-22.25Q460.1-20.8 459.32-19.9 458.55-19 457.35-19L457.35-19Q456.8-19 456.1-19.1L456.1-19.1 455.6-19.25 455.6-25.25Q454.3-25.25 453.15-24L453.15-24Q452.7-23.55 452.35-22.75L452.35-22.75Q454.85-20.55 454.85-17L454.85-17Q454.85-13.3 452.05-11.03 449.25-8.75 443.85-8.75L443.85-8.75Q440.25-8.75 437.35-10L437.35-10 436.35-9.5Q435.85-9.2 435.6-8.93 435.35-8.65 435.35-8.25L435.35-8.25Q435.35-7.4 436.22-6.95 437.1-6.5 439.35-6.5L439.35-6.5 448.85-6.5Q452.6-6.5 454.72-4.33 456.85-2.15 456.85 1.75L456.85 1.75Q456.85 5.75 453.52 8.25 450.2 10.75 443.6 10.75L443.6 10.75ZM443.85-9.75Q445.5-9.75 446.42-11.35 447.35-12.95 447.35-17L447.35-17Q447.35-21.05 446.42-22.65 445.5-24.25 443.85-24.25L443.85-24.25Q442.2-24.25 441.27-22.65 440.35-21.05 440.35-17L440.35-17Q440.35-12.95 441.27-11.35 442.2-9.75 443.85-9.75L443.85-9.75Z" opacity="1" transform="matrix(1,0,0,1,0,0)" fill="#ff908b" class="undefined-text-1" data-fill-palette-color="secondary" id="text-1"></path></svg></g></svg></g></svg></g></svg></g></svg></g></svg></g></svg></g><path d="M182.902 80.401L182.902 18.094 393.913 18.094 393.913 229.106 182.902 229.106 182.902 166.799 186.521 166.799 186.521 225.487 390.295 225.487 390.295 21.713 186.521 21.713 186.521 80.401Z" fill="#ed1703" stroke="transparent" data-fill-palette-color="primary"></path></svg></g></svg><rect width="395.52" height="247.2" fill="none" stroke="none" visibility="hidden"></rect></g></svg></g></svg>